<svg class="diagram-root" viewBox="0 0 1000 500" style="background: #f5f6f6" xmlns="http://www.w3.org/2000/svg" >
     xmlns:xlink="http://www.w3.org/1999/xlink">
    <style>.diagram-root { font-family: "Helvetica Neue", sans-serif; font-size: 12px; } .t { overflow: visible; } .t-bg
        { y: 40; fill: #fff; } .th { fill: #005aa0; } .tht { fill: #fff; font-size: 14px; } .tf { fill: #323c46;
        overflow: visible; } .tf.pk { fill: #005aa0; font-weight: bold; } .tf.fk { font-weight: bold; } .ty { fill:
        #adb1b5; font-weight: normal; text-anchor: end; } .r { fill: transparent; stroke: #c3c3c3; stroke-width: 1; } .l
        { stroke: 1; } .i { fill: #c2c7ce; stroke: #c2c7ce; } .i.ix { fill: #afb3b6; stroke: #000; } .fa { fill:
        transparent; overflow: visible; } .fa .bg.hover { fill: #f7f7f7; } .c { cy: 12; r: 4; stroke: #d2d2dc; fill:
        #d2d2dc; } .hr { fill: transparent; stroke: #323c46; stroke-opacity: 0.035; stroke-width: 13; } .dc { stroke:
        #fa5a3c; fill: #fa5a3c; } .x { stroke: white; stroke-width: 1; } .hl .th { fill: #1b9bff; } .hl .tht { } .fhl
        .bg { fill: #e7f4ff; } .fhls .bg { } .r.hl { stroke: #1b9bff; } .dim { opacity: 0.25; }
    </style>
    <g class="drawing-wrapper" transform="translate(212.56, 0.28000000000000114) scale(1,1)">
        <g class="rs">
            <path d="M 46.44 212.22 m -1, 0 a 1,1 0 1,0 2,0 a 1,1 0 1,0 -2,0 M 46.44 212.22 m -0.5, 0 a 0.5,0.5 0 1,0 1,0 a 0.5,0.5 0 1,0 -1,0  M46.44 212.22 L46.44 212.22 34.44 212.22 M 46.44 218.22 m -1, 0 a 1,1 0 1,0 2,0 a 1,1 0 1,0 -2,0 M 46.44 218.22 m -0.5, 0 a 0.5,0.5 0 1,0 1,0 a 0.5,0.5 0 1,0 -1,0  M46.44 218.22 L46.44 218.22 39.44 212.22 46.44 206.22 M 46.44 206.22 m -1, 0 a 1,1 0 1,0 2,0 a 1,1 0 1,0 -2,0 M 46.44 206.22 m -0.5, 0 a 0.5,0.5 0 1,0 1,0 a 0.5,0.5 0 1,0 -1,0  M34.44 212.22 C 5.9133284509026955 212.22, 5.943328450902694 297.56, 34.39 297.56 M 46.39 297.56 m -1, 0 a 1,1 0 1,0 2,0 a 1,1 0 1,0 -2,0 M 46.39 297.56 m -0.5, 0 a 0.5,0.5 0 1,0 1,0 a 0.5,0.5 0 1,0 -1,0  M46.39 297.56 L46.39 297.56 34.39 297.56 M40.39 303.56 L40.39 303.56 40.39 291.56"
                  id="h1981091798" class="r"></path>
            <path d="M -49.17 86.72 m -1, 0 a 1,1 0 1,0 2,0 a 1,1 0 1,0 -2,0 M -49.17 86.72 m -0.5, 0 a 0.5,0.5 0 1,0 1,0 a 0.5,0.5 0 1,0 -1,0  M-49.17 86.72 L-49.17 86.72 -37.17 86.72 M -49.17 92.72 m -1, 0 a 1,1 0 1,0 2,0 a 1,1 0 1,0 -2,0 M -49.17 92.72 m -0.5, 0 a 0.5,0.5 0 1,0 1,0 a 0.5,0.5 0 1,0 -1,0  M-49.17 92.72 L-49.17 92.72 -42.17 86.72 -49.17 80.72 M -49.17 80.72 m -1, 0 a 1,1 0 1,0 2,0 a 1,1 0 1,0 -2,0 M -49.17 80.72 m -0.5, 0 a 0.5,0.5 0 1,0 1,0 a 0.5,0.5 0 1,0 -1,0  M-37.17 86.72 Q -19.27 86.72, -1.37 86.97 T 34.44 87.22 M 46.44 87.22 m -1, 0 a 1,1 0 1,0 2,0 a 1,1 0 1,0 -2,0 M 46.44 87.22 m -0.5, 0 a 0.5,0.5 0 1,0 1,0 a 0.5,0.5 0 1,0 -1,0  M46.44 87.22 L46.44 87.22 34.44 87.22 M40.44 93.22 L40.44 93.22 40.44 81.22"
                  id="h2393061165" class="r"></path>
            <path d="M -190.56 111.72 m -1, 0 a 1,1 0 1,0 2,0 a 1,1 0 1,0 -2,0 M -190.56 111.72 m -0.5, 0 a 0.5,0.5 0 1,0 1,0 a 0.5,0.5 0 1,0 -1,0  M-190.56 111.72 L-190.56 111.72 -202.56 111.72 M -190.56 117.72 m -1, 0 a 1,1 0 1,0 2,0 a 1,1 0 1,0 -2,0 M -190.56 117.72 m -0.5, 0 a 0.5,0.5 0 1,0 1,0 a 0.5,0.5 0 1,0 -1,0  M-190.56 117.72 L-190.56 117.72 -197.56 111.72 -190.56 105.72 M -190.56 105.72 m -1, 0 a 1,1 0 1,0 2,0 a 1,1 0 1,0 -2,0 M -190.56 105.72 m -0.5, 0 a 0.5,0.5 0 1,0 1,0 a 0.5,0.5 0 1,0 -1,0  M-202.56 111.72 C -230.70689483564553 111.72, -230.91089483564554 196.16, -202.22 196.16 M -190.22 196.16 m -1, 0 a 1,1 0 1,0 2,0 a 1,1 0 1,0 -2,0 M -190.22 196.16 m -0.5, 0 a 0.5,0.5 0 1,0 1,0 a 0.5,0.5 0 1,0 -1,0  M-190.22 196.16 L-190.22 196.16 -202.22 196.16 M-196.22 202.16 L-196.22 202.16 -196.22 190.16"
                  id="h515368828" class="r"></path>
            <path d="M 635.06 278.53999999999996 m -1, 0 a 1,1 0 1,0 2,0 a 1,1 0 1,0 -2,0 M 635.06 278.53999999999996 m -0.5, 0 a 0.5,0.5 0 1,0 1,0 a 0.5,0.5 0 1,0 -1,0  M635.06 278.53999999999996 L635.06 278.53999999999996 647.06 278.53999999999996 M 635.06 284.53999999999996 m -1, 0 a 1,1 0 1,0 2,0 a 1,1 0 1,0 -2,0 M 635.06 284.53999999999996 m -0.5, 0 a 0.5,0.5 0 1,0 1,0 a 0.5,0.5 0 1,0 -1,0  M635.06 284.53999999999996 L635.06 284.53999999999996 642.06 278.53999999999996 635.06 272.53999999999996 M 635.06 272.53999999999996 m -1, 0 a 1,1 0 1,0 2,0 a 1,1 0 1,0 -2,0 M 635.06 272.53999999999996 m -0.5, 0 a 0.5,0.5 0 1,0 1,0 a 0.5,0.5 0 1,0 -1,0  M647.06 278.53999999999996 C 697.8599999999999 278.53999999999996, 697.56 89.72999999999999, 647.56 89.72999999999999 M 635.56 89.72999999999999 m -1, 0 a 1,1 0 1,0 2,0 a 1,1 0 1,0 -2,0 M 635.56 89.72999999999999 m -0.5, 0 a 0.5,0.5 0 1,0 1,0 a 0.5,0.5 0 1,0 -1,0  M635.56 89.72999999999999 L635.56 89.72999999999999 647.56 89.72999999999999 M641.56 95.72999999999999 L641.56 95.72999999999999 641.56 83.72999999999999"
                  id="h2818756797" class="r"></path>
            <path d="M 635.06 303.53999999999996 m -1, 0 a 1,1 0 1,0 2,0 a 1,1 0 1,0 -2,0 M 635.06 303.53999999999996 m -0.5, 0 a 0.5,0.5 0 1,0 1,0 a 0.5,0.5 0 1,0 -1,0  M635.06 303.53999999999996 L635.06 303.53999999999996 647.06 303.53999999999996 M 635.06 309.53999999999996 m -1, 0 a 1,1 0 1,0 2,0 a 1,1 0 1,0 -2,0 M 635.06 309.53999999999996 m -0.5, 0 a 0.5,0.5 0 1,0 1,0 a 0.5,0.5 0 1,0 -1,0  M635.06 309.53999999999996 L635.06 309.53999999999996 642.06 303.53999999999996 635.06 297.53999999999996 M 635.06 297.53999999999996 m -1, 0 a 1,1 0 1,0 2,0 a 1,1 0 1,0 -2,0 M 635.06 297.53999999999996 m -0.5, 0 a 0.5,0.5 0 1,0 1,0 a 0.5,0.5 0 1,0 -1,0  M647.06 303.53999999999996 C 697.8599999999999 303.53999999999996, 697.56 89.72999999999999, 647.56 89.72999999999999 M 635.56 89.72999999999999 m -1, 0 a 1,1 0 1,0 2,0 a 1,1 0 1,0 -2,0 M 635.56 89.72999999999999 m -0.5, 0 a 0.5,0.5 0 1,0 1,0 a 0.5,0.5 0 1,0 -1,0  M635.56 89.72999999999999 L635.56 89.72999999999999 647.56 89.72999999999999 M641.56 95.72999999999999 L641.56 95.72999999999999 641.56 83.72999999999999"
                  id="h4181602274" class="r"></path>
            <path d="M 635.06 328.53999999999996 m -1, 0 a 1,1 0 1,0 2,0 a 1,1 0 1,0 -2,0 M 635.06 328.53999999999996 m -0.5, 0 a 0.5,0.5 0 1,0 1,0 a 0.5,0.5 0 1,0 -1,0  M635.06 328.53999999999996 L635.06 328.53999999999996 647.06 328.53999999999996 M 635.06 334.53999999999996 m -1, 0 a 1,1 0 1,0 2,0 a 1,1 0 1,0 -2,0 M 635.06 334.53999999999996 m -0.5, 0 a 0.5,0.5 0 1,0 1,0 a 0.5,0.5 0 1,0 -1,0  M635.06 334.53999999999996 L635.06 334.53999999999996 642.06 328.53999999999996 635.06 322.53999999999996 M 635.06 322.53999999999996 m -1, 0 a 1,1 0 1,0 2,0 a 1,1 0 1,0 -2,0 M 635.06 322.53999999999996 m -0.5, 0 a 0.5,0.5 0 1,0 1,0 a 0.5,0.5 0 1,0 -1,0  M647.06 328.53999999999996 C 677.6020826256349 328.53999999999996, 678.2440826256349 420.16, 645.99 420.16 M 633.99 420.16 m -1, 0 a 1,1 0 1,0 2,0 a 1,1 0 1,0 -2,0 M 633.99 420.16 m -0.5, 0 a 0.5,0.5 0 1,0 1,0 a 0.5,0.5 0 1,0 -1,0  M633.99 420.16 L633.99 420.16 645.99 420.16 M639.99 426.16 L639.99 426.16 639.99 414.16"
                  id="h4142987908" class="r"></path>
            <path d="M 409.75 87.71000000000001 m -1, 0 a 1,1 0 1,0 2,0 a 1,1 0 1,0 -2,0 M 409.75 87.71000000000001 m -0.5, 0 a 0.5,0.5 0 1,0 1,0 a 0.5,0.5 0 1,0 -1,0  M409.75 87.71000000000001 L409.75 87.71000000000001 421.75 87.71000000000001 M 409.75 93.71000000000001 m -1, 0 a 1,1 0 1,0 2,0 a 1,1 0 1,0 -2,0 M 409.75 93.71000000000001 m -0.5, 0 a 0.5,0.5 0 1,0 1,0 a 0.5,0.5 0 1,0 -1,0  M409.75 93.71000000000001 L409.75 93.71000000000001 416.75 87.71000000000001 409.75 81.71000000000001 M 409.75 81.71000000000001 m -1, 0 a 1,1 0 1,0 2,0 a 1,1 0 1,0 -2,0 M 409.75 81.71000000000001 m -0.5, 0 a 0.5,0.5 0 1,0 1,0 a 0.5,0.5 0 1,0 -1,0  M421.75 87.71000000000001 C 471.75 87.71000000000001, 595.302 87.22, 215.83 87.22 M 203.83 87.22 m -1, 0 a 1,1 0 1,0 2,0 a 1,1 0 1,0 -2,0 M 203.83 87.22 m -0.5, 0 a 0.5,0.5 0 1,0 1,0 a 0.5,0.5 0 1,0 -1,0  M203.83 87.22 L203.83 87.22 215.83 87.22 M209.83 93.22 L209.83 93.22 209.83 81.22"
                  id="h933295453" class="r"></path>
            <path d="M 409.75 112.71000000000001 m -1, 0 a 1,1 0 1,0 2,0 a 1,1 0 1,0 -2,0 M 409.75 112.71000000000001 m -0.5, 0 a 0.5,0.5 0 1,0 1,0 a 0.5,0.5 0 1,0 -1,0  M409.75 112.71000000000001 L409.75 112.71000000000001 421.75 112.71000000000001 M 409.75 118.71000000000001 m -1, 0 a 1,1 0 1,0 2,0 a 1,1 0 1,0 -2,0 M 409.75 118.71000000000001 m -0.5, 0 a 0.5,0.5 0 1,0 1,0 a 0.5,0.5 0 1,0 -1,0  M409.75 118.71000000000001 L409.75 118.71000000000001 416.75 112.71000000000001 409.75 106.71000000000001 M 409.75 106.71000000000001 m -1, 0 a 1,1 0 1,0 2,0 a 1,1 0 1,0 -2,0 M 409.75 106.71000000000001 m -0.5, 0 a 0.5,0.5 0 1,0 1,0 a 0.5,0.5 0 1,0 -1,0  M421.75 112.71000000000001 Q 438.7 112.71000000000001, 455.64 101.22 T 489.52 89.72999999999999 M 501.52 89.72999999999999 m -1, 0 a 1,1 0 1,0 2,0 a 1,1 0 1,0 -2,0 M 501.52 89.72999999999999 m -0.5, 0 a 0.5,0.5 0 1,0 1,0 a 0.5,0.5 0 1,0 -1,0  M501.52 89.72999999999999 L501.52 89.72999999999999 489.52 89.72999999999999 M495.52 95.72999999999999 L495.52 95.72999999999999 495.52 83.72999999999999"
                  id="h2168725292" class="r"></path>
        </g>
        <g class="hrs"></g>
        <g class="ts">
            <!-- film -->
            <svg width="157.39" height="200" x="46.44" y="30.22" id="h4200617828" class="t">
                <rect height="40" width="157.39" class="th"></rect>
                <text x="13" y="25" class="tht">film</text>
                <rect height="160" width="157.39" class="t-bg"></rect>
                <text x="13" y="61" class="tf pk">film_id
                    <tspan x="144.39" class="ty">bigint</tspan>
                </text>
                <path d="M7,14A2,2 0 0,1 5,12A2,2 0 0,1 7,10A2,2 0 0,1 9,12A2,2 0 0,1 7,14M12.65,10C11.83,7.67 9.61,6 7, 6A6, 6 0 0, 0 1, 12A6, 6 0 0, 0 7, 18C9.61, 18 11.83, 16.33 12.65, 14H17V18H21V14H23V10H12.65Z"
                      class="i pk" transform="translate(95.70249999999999, 48) scale(0.65)"></path>
                <text x="13" y="86" class="tf">name
                    <tspan x="144.39" class="ty">varchar</tspan>
                </text>
                <text x="13" y="111" class="tf">description
                    <tspan x="144.39" class="ty">varchar?</tspan>
                </text>
                <text x="13" y="136" class="tf">release_date
                    <tspan x="144.39" class="ty">date</tspan>
                </text>
                <text x="13" y="161" class="tf">duration
                    <tspan x="144.39" class="ty">time</tspan>
                </text>
                <text x="13" y="186" class="tf fk">rating_id
                    <tspan x="144.39" class="ty">int?</tspan>
                </text>
            </svg>
            <!-- rating -->
            <svg width="146.7" height="100" x="46.39" y="240.56" id="h2037942479" class="t">
                <rect height="40" width="146.7" class="th"></rect>
                <text x="13" y="25" class="tht">rating</text>
                <rect height="60" width="146.7" class="t-bg"></rect>
                <text x="13" y="61" class="tf pk">rating_id
                    <tspan x="133.7" class="ty">int</tspan>
                </text>
                <path d="M7,14A2,2 0 0,1 5,12A2,2 0 0,1 7,10A2,2 0 0,1 9,12A2,2 0 0,1 7,14M12.65,10C11.83,7.67 9.61,6 7, 6A6, 6 0 0, 0 1, 12A6, 6 0 0, 0 7, 18C9.61, 18 11.83, 16.33 12.65, 14H17V18H21V14H23V10H12.65Z"
                      class="i pk" transform="translate(101.02617187499999, 48) scale(0.65)"></path>
                <text x="13" y="86" class="tf">name
                    <tspan x="133.7" class="ty">varchar(5)</tspan>
                </text>
                <path d="M22,18V22H18V19H15V16H12L9.74,13.74C9.19,13.91 8.61,14 8,14A6,6 0 0,1 2,8A6,6 0 0,1 8,2A6,6 0 0,1 14,8C14,8.61 13.91, 9.19 13.74, 9.74L22, 18M7, 5A2, 2 0 0, 0 5, 7A2, 2 0 0, 0 7, 9A2, 2 0 0, 0 9, 7A2, 2 0 0, 0 7, 5Z"
                      class="i uq" transform="translate(63.02031249999999, 75.5) scale(0.5)"></path>
            </svg>
            <!-- genre -->
            <svg width="153.37" height="100" x="-190.22" y="139.16" id="h1304626560" class="t">
                <rect height="40" width="153.37" class="th"></rect>
                <text x="13" y="25" class="tht">genre</text>
                <rect height="60" width="153.37" class="t-bg"></rect>
                <text x="13" y="61" class="tf pk">genre_id
                    <tspan x="140.37" class="ty">bigint</tspan>
                </text>
                <path d="M7,14A2,2 0 0,1 5,12A2,2 0 0,1 7,10A2,2 0 0,1 9,12A2,2 0 0,1 7,14M12.65,10C11.83,7.67 9.61,6 7, 6A6, 6 0 0, 0 1, 12A6, 6 0 0, 0 7, 18C9.61, 18 11.83, 16.33 12.65, 14H17V18H21V14H23V10H12.65Z"
                      class="i pk" transform="translate(91.6825, 48) scale(0.65)"></path>
                <text x="13" y="86" class="tf">name
                    <tspan x="140.37" class="ty">varchar(50)</tspan>
                </text>
                <path d="M22,18V22H18V19H15V16H12L9.74,13.74C9.19,13.91 8.61,14 8,14A6,6 0 0,1 2,8A6,6 0 0,1 8,2A6,6 0 0,1 14,8C14,8.61 13.91, 9.19 13.74, 9.74L22, 18M7, 5A2, 2 0 0, 0 5, 7A2, 2 0 0, 0 7, 9A2, 2 0 0, 0 9, 7A2, 2 0 0, 0 7, 5Z"
                      class="i uq" transform="translate(63.016484375000005, 75.5) scale(0.5)"></path>
            </svg>
            <!-- film_genre -->
            <svg width="141.39" height="100" x="-190.56" y="29.72" id="h1016190631" class="t">
                <rect height="40" width="141.39" class="th"></rect>
                <text x="13" y="25" class="tht">film_genre</text>
                <rect height="60" width="141.39" class="t-bg"></rect>
                <text x="13" y="61" class="tf pk">film_id
                    <tspan x="128.39" class="ty">bigint</tspan>
                </text>
                <path d="M7,14A2,2 0 0,1 5,12A2,2 0 0,1 7,10A2,2 0 0,1 9,12A2,2 0 0,1 7,14M12.65,10C11.83,7.67 9.61,6 7, 6A6, 6 0 0, 0 1, 12A6, 6 0 0, 0 7, 18C9.61, 18 11.83, 16.33 12.65, 14H17V18H21V14H23V10H12.65Z"
                      class="i pk" transform="translate(79.70249999999999, 48) scale(0.65)"></path>
                <text x="13" y="86" class="tf pk">genre_id
                    <tspan x="128.39" class="ty">bigint</tspan>
                </text>
                <path d="M7,14A2,2 0 0,1 5,12A2,2 0 0,1 7,10A2,2 0 0,1 9,12A2,2 0 0,1 7,14M12.65,10C11.83,7.67 9.61,6 7, 6A6, 6 0 0, 0 1, 12A6, 6 0 0, 0 7, 18C9.61, 18 11.83, 16.33 12.65, 14H17V18H21V14H23V10H12.65Z"
                      class="i pk" transform="translate(79.70249999999999, 73) scale(0.65)"></path>
            </svg>
            <!-- user -->
            <svg width="134.04" height="175" x="501.52" y="32.73" id="h2728321744" class="t">
                <rect height="40" width="134.04" class="th"></rect>
                <text x="13" y="25" class="tht">user</text>
                <rect height="135" width="134.04" class="t-bg"></rect>
                <text x="13" y="61" class="tf pk">user_id
                    <tspan x="121.03999999999999" class="ty">bigint</tspan>
                </text>
                <path d="M7,14A2,2 0 0,1 5,12A2,2 0 0,1 7,10A2,2 0 0,1 9,12A2,2 0 0,1 7,14M12.65,10C11.83,7.67 9.61,6 7, 6A6, 6 0 0, 0 1, 12A6, 6 0 0, 0 7, 18C9.61, 18 11.83, 16.33 12.65, 14H17V18H21V14H23V10H12.65Z"
                      class="i pk" transform="translate(72.35249999999999, 48) scale(0.65)"></path>
                <text x="13" y="86" class="tf">email
                    <tspan x="121.03999999999999" class="ty">varchar</tspan>
                </text>
                <text x="13" y="111" class="tf">login
                    <tspan x="121.03999999999999" class="ty">varchar</tspan>
                </text>
                <text x="13" y="136" class="tf">name
                    <tspan x="121.03999999999999" class="ty">varchar</tspan>
                </text>
                <text x="13" y="161" class="tf">birthday
                    <tspan x="121.03999999999999" class="ty">date</tspan>
                </text>
            </svg>
            <!-- user_friend -->
            <svg width="158.73" height="125" x="476.33" y="221.54" id="h260524376" class="t">
                <rect height="40" width="158.73" class="th"></rect>
                <text x="13" y="25" class="tht">user_friend</text>
                <rect height="85" width="158.73" class="t-bg"></rect>
                <text x="13" y="61" class="tf pk">user_id
                    <tspan x="145.73" class="ty">bigint</tspan>
                </text>
                <path d="M7,14A2,2 0 0,1 5,12A2,2 0 0,1 7,10A2,2 0 0,1 9,12A2,2 0 0,1 7,14M12.65,10C11.83,7.67 9.61,6 7, 6A6, 6 0 0, 0 1, 12A6, 6 0 0, 0 7, 18C9.61, 18 11.83, 16.33 12.65, 14H17V18H21V14H23V10H12.65Z"
                      class="i pk" transform="translate(97.04249999999999, 48) scale(0.65)"></path>
                <text x="13" y="86" class="tf pk">friend_id
                    <tspan x="145.73" class="ty">bigint</tspan>
                </text>
                <path d="M7,14A2,2 0 0,1 5,12A2,2 0 0,1 7,10A2,2 0 0,1 9,12A2,2 0 0,1 7,14M12.65,10C11.83,7.67 9.61,6 7, 6A6, 6 0 0, 0 1, 12A6, 6 0 0, 0 7, 18C9.61, 18 11.83, 16.33 12.65, 14H17V18H21V14H23V10H12.65Z"
                      class="i pk" transform="translate(97.04249999999999, 73) scale(0.65)"></path>
                <text x="13" y="111" class="tf fk">frienship_status_id
                    <tspan x="145.73" class="ty">int</tspan>
                </text>
            </svg>
            <!-- friendship_status -->
            <svg width="178.73" height="100" x="455.26" y="363.16" id="h1090621442" class="t">
                <rect height="40" width="178.73" class="th"></rect>
                <text x="13" y="25" class="tht">friendship_status</text>
                <rect height="60" width="178.73" class="t-bg"></rect>
                <text x="13" y="61" class="tf pk">frienship_status_id
                    <tspan x="165.73" class="ty">int</tspan>
                </text>
                <path d="M7,14A2,2 0 0,1 5,12A2,2 0 0,1 7,10A2,2 0 0,1 9,12A2,2 0 0,1 7,14M12.65,10C11.83,7.67 9.61,6 7, 6A6, 6 0 0, 0 1, 12A6, 6 0 0, 0 7, 18C9.61, 18 11.83, 16.33 12.65, 14H17V18H21V14H23V10H12.65Z"
                      class="i pk" transform="translate(133.056171875, 48) scale(0.65)"></path>
                <text x="13" y="86" class="tf">name
                    <tspan x="165.73" class="ty">varchar(20)</tspan>
                </text>
                <path d="M22,18V22H18V19H15V16H12L9.74,13.74C9.19,13.91 8.61,14 8,14A6,6 0 0,1 2,8A6,6 0 0,1 8,2A6,6 0 0,1 14,8C14,8.61 13.91, 9.19 13.74, 9.74L22, 18M7, 5A2, 2 0 0, 0 5, 7A2, 2 0 0, 0 7, 9A2, 2 0 0, 0 9, 7A2, 2 0 0, 0 7, 5Z"
                      class="i uq" transform="translate(88.37648437499999, 75.5) scale(0.5)"></path>
            </svg>
            <!-- film_like -->
            <svg width="134.04" height="100" x="275.71" y="30.71" id="h1776118718" class="t">
                <rect height="40" width="134.04" class="th"></rect>
                <text x="13" y="25" class="tht">film_like</text>
                <rect height="60" width="134.04" class="t-bg"></rect>
                <text x="13" y="61" class="tf pk">film_id
                    <tspan x="121.03999999999999" class="ty">bigint</tspan>
                </text>
                <path d="M7,14A2,2 0 0,1 5,12A2,2 0 0,1 7,10A2,2 0 0,1 9,12A2,2 0 0,1 7,14M12.65,10C11.83,7.67 9.61,6 7, 6A6, 6 0 0, 0 1, 12A6, 6 0 0, 0 7, 18C9.61, 18 11.83, 16.33 12.65, 14H17V18H21V14H23V10H12.65Z"
                      class="i pk" transform="translate(72.35249999999999, 48) scale(0.65)"></path>
                <text x="13" y="86" class="tf pk">user_id
                    <tspan x="121.03999999999999" class="ty">bigint</tspan>
                </text>
                <path d="M7,14A2,2 0 0,1 5,12A2,2 0 0,1 7,10A2,2 0 0,1 9,12A2,2 0 0,1 7,14M12.65,10C11.83,7.67 9.61,6 7, 6A6, 6 0 0, 0 1, 12A6, 6 0 0, 0 7, 18C9.61, 18 11.83, 16.33 12.65, 14H17V18H21V14H23V10H12.65Z"
                      class="i pk" transform="translate(72.35249999999999, 73) scale(0.65)"></path>
            </svg>
        </g>
    </g>
</svg>